<?xml version="1.0" encoding="UTF-8"?>
<svg id="Layer_1" data-name="Layer 1" xmlns="http://www.w3.org/2000/svg" viewBox="0 0 1940 1940">
  <defs>
    <style>
      .cls-1 {
        fill: #3499cc;
      }

      .cls-1, .cls-2 {
        stroke-width: 0px;
      }

      .cls-2 {
        fill: #fff;
      }
    </style>
  </defs>
  <rect class="cls-1" width="1940" height="1940"/>
  <path class="cls-2" d="M536.14,1520h867.7c64.15,0,116.15-52,116.15-116.15v-867.7c0-64.15-52.01-116.15-116.15-116.15h-867.7c-64.14,0-116.14,52.01-116.14,116.15v867.7c0,64.15,52.01,116.15,116.14,116.15ZM857.62,958.71c-21.87,107.19-46.62,228.66-68.85,337.53-19.28,65.66-2.4,117-69.44,134.87-30.3,6.7-64.74,4.12-96.57,4.65-36.28.29-85.63.76-104.74-27.05-12.19-16.3-13-39.51-12.66-72.31.09-75.86-.18-167.17.08-244.22-6.39-79.63,61.43-94.93,122.55-132.11,53.52-30.03,117.97-66.06,169.4-94.93,29.95-16.41,45.43-27.47,62.59-23.39l1.39.46c29,18.69,1.42,70.96-3.76,116.5ZM1434.46,1161.49c.05,55.88-.05,126.39,0,179.05.52,33.19-1.5,56.55-15.62,72.18-29.55,31.97-95.44,21.51-138.68,23.32-42.96,1.98-103.25-5.44-110.69-52.2-25.53-120.53-55.83-273.88-81.29-397.39-5.7-41.65-29.28-108.89-19.79-134.18l.66-1.33c8.43-23.4,54.36,1.71,77.34,15.97,68.46,38.46,147.87,83,217.25,121.98,88.46,39.36,68.7,92.66,70.81,172.59ZM1030.21,642.16c11.75-35.72,20.47-111.62,56.15-130.05l2.33-1.15c57.3-14.03,136.88-2.87,199.65-6.26,69.29,4.84,125.56-19.75,146.16,51.06,5.85,30.45,3.07,62.99,3.73,94.96,1.01,50.34,3.64,119.74-55.65,122.75-80.89-5.56-232.1-32.5-315.95-42.64-16.79-2.76-38.82-4.37-48.56-18.15-11.1-21.82,4.64-44.69,12.13-70.53ZM930.79,1335.95c2.65-47.58,5.32-95.81,8-143.96,2.4-43.08,4.48-80.74,6.61-119.1,3.98-38.87-1.9-58.56,11.64-73.67l1.37-1.03c29.89-14.99,35.73,20.03,35.25,45.81,1.36,25.31,3.34,61.72,5.49,101.47,4.51,83.4,9.82,180.93,12.02,222.4.8,15.58,1.23,30.9-7.75,44.3-18.47,28.69-56.95,23.76-70.29-6.66-7.75-18.88-3.5-35.79-2.34-69.56ZM548.35,508.37c82.48-7.99,200.68-3.31,285.48-2.26,44.36,4.11,55.58,47.97,66.18,89.02,4.87,35.09,26.35,78.4,26.06,106.06l-.23,1.85c-3.06,27.26-50.27,26.21-84.44,32.36-84.32,11.65-187.21,27.34-266.97,37.59-60.78,9.23-76.02-45.49-72.51-103.23,4.19-53.59-18.26-143.54,46.42-161.39Z"/>
</svg>